<svg width="908" height="591" xmlns="http://www.w3.org/2000/svg">
    <g fill="#704C32" fill-rule="evenodd" opacity=".149">
        <path d="m43.242 0 49.413 135.324H17.562L0 183.399h110.21L139.27 263H202L105.994 0zM908 0 754.808.032 733 59.808h111.416V177L908 153.456zM175 59.674l75.112.027.045 203.299h63.917V59.701l87.06-.027L423 .027 175 0zM294.212 524.478c-40.282 0-73.065-31.387-73.065-69.992 0-38.572 32.783-69.969 73.065-69.969 6.5 0 12.783.901 18.788 2.43v-67.55c-6.161-.825-12.4-1.397-18.788-1.397C217.451 318 155 379.24 155 454.486 155 529.77 217.451 591 294.212 591c6.389 0 12.627-.582 18.788-1.401v-67.55c-6.005 1.533-12.288 2.429-18.788 2.429"/>
    </g>
</svg>
